<svg width="16" height="16" viewBox="0 0 16 16" fill="none" xmlns="http://www.w3.org/2000/svg">
<mask id="path-1-inside-1_0_131" fill="white">
<path d="M8 0C9.06087 0 10.0783 0.421427 10.8284 1.17157C11.5786 1.92172 12 2.93913 12 4C12 5.06087 11.5786 6.07828 10.8284 6.82843C10.0783 7.57857 9.06087 8 8 8C6.93913 8 5.92172 7.57857 5.17157 6.82843C4.42143 6.07828 4 5.06087 4 4C4 2.93913 4.42143 1.92172 5.17157 1.17157C5.92172 0.421427 6.93913 0 8 0M8 10C12.42 10 16 11.79 16 14V16H0V14C0 11.79 3.58 10 8 10Z"/>
</mask>
<path d="M12 4L13 4L12 4ZM8 8L8 9L8 8ZM4 4L3 4L4 4ZM16 16V17H17V16H16ZM0 16H-1V17H0V16ZM8 1C8.79565 1 9.55871 1.31607 10.1213 1.87868L11.5355 0.464466C10.5979 -0.473216 9.32608 -1 8 -1L8 1ZM10.1213 1.87868C10.6839 2.44129 11 3.20435 11 4L13 4C13 2.67392 12.4732 1.40215 11.5355 0.464466L10.1213 1.87868ZM11 4C11 4.79565 10.6839 5.55871 10.1213 6.12132L11.5355 7.53553C12.4732 6.59785 13 5.32608 13 4L11 4ZM10.1213 6.12132C9.55871 6.68393 8.79565 7 8 7L8 9C9.32608 9 10.5979 8.47322 11.5355 7.53553L10.1213 6.12132ZM8 7C7.20435 7 6.44129 6.68393 5.87868 6.12132L4.46447 7.53553C5.40215 8.47322 6.67392 9 8 9L8 7ZM5.87868 6.12132C5.31607 5.55871 5 4.79565 5 4L3 4C3 5.32608 3.52678 6.59785 4.46447 7.53553L5.87868 6.12132ZM5 4C5 3.20435 5.31607 2.44129 5.87868 1.87868L4.46447 0.464466C3.52678 1.40215 3 2.67392 3 4L5 4ZM5.87868 1.87868C6.44129 1.31607 7.20435 1 8 1L8 -1C6.67392 -1 5.40215 -0.473216 4.46447 0.464466L5.87868 1.87868ZM8 11C10.0885 11 11.929 11.425 13.2103 12.0657C14.5511 12.7361 15 13.4776 15 14H17C17 12.3124 15.6589 11.0539 14.1047 10.2768C12.491 9.46997 10.3315 9 8 9V11ZM15 14V16H17V14H15ZM16 15H0V17H16V15ZM1 16V14H-1V16H1ZM1 14C1 13.4776 1.44887 12.7361 2.78971 12.0657C4.071 11.425 5.91146 11 8 11V9C5.66854 9 3.509 9.46997 1.89529 10.2768C0.341128 11.0539 -1 12.3124 -1 14H1Z" fill="#DEDDDD" mask="url(#path-1-inside-1_0_131)"/>
</svg>
